REM DIRINDEX 1\2,1\3,1\4,1\5
REM DIRNAME "folder01","folder02","folder03","folder04","folder05"
TITLE ""
FILE "1Q_t_1929-1938.mp3" MP3
  TRACK 01 AUDIO
    TITLE "2:cjc172_6791"
    INDEX 01 00:00:00
  TRACK 02 AUDIO
    TITLE "0:"
    INDEX 01 00:01:14
  TRACK 03 AUDIO
    TITLE "3:cjc172_6792"
    INDEX 01 00:01:59
  TRACK 04 AUDIO
    TITLE "0:"
    INDEX 01 00:02:64
  TRACK 05 AUDIO
    TITLE "4:cjc172_6793"
    INDEX 01 00:02:74
  TRACK 06 AUDIO
    TITLE "0:"
    INDEX 01 00:04:59
  TRACK 07 AUDIO
    TITLE "5:cjc172_6794"
    INDEX 01 00:04:69
  TRACK 08 AUDIO
    TITLE "0:"
    INDEX 01 00:09:48
  TRACK 09 AUDIO
    TITLE "3:cjc172_6795"
    INDEX 01 00:10:20
  TRACK 10 AUDIO
    TITLE "0:"
    INDEX 01 00:11:26
  TRACK 11 AUDIO
    TITLE "4:cjc172_6796"
    INDEX 01 00:11:36
  TRACK 12 AUDIO
    TITLE "0:"
    INDEX 01 00:13:27
  TRACK 13 AUDIO
    TITLE "5:cjc172_6797"
    INDEX 01 00:13:34
  TRACK 14 AUDIO
    TITLE "0:"
    INDEX 01 00:17:05
  TRACK 15 AUDIO
    TITLE "3:cjc172_6798"
    INDEX 01 00:17:56
  TRACK 16 AUDIO
    TITLE "0:"
    INDEX 01 00:18:53
  TRACK 17 AUDIO
    TITLE "4:cjc172_6799"
    INDEX 01 00:18:63
  TRACK 18 AUDIO
    TITLE "0:"
    INDEX 01 00:19:72
  TRACK 19 AUDIO
    TITLE "5:cjc172_6800"
    INDEX 01 00:20:07
  TRACK 20 AUDIO
    TITLE "0:"
    INDEX 01 00:25:47
  TRACK 21 AUDIO
    TITLE "3:cjc172_6801"
    INDEX 01 00:26:21
  TRACK 22 AUDIO
    TITLE "0:"
    INDEX 01 00:27:25
  TRACK 23 AUDIO
    TITLE "4:cjc172_6802"
    INDEX 01 00:27:35
  TRACK 24 AUDIO
    TITLE "0:"
    INDEX 01 00:28:42
  TRACK 25 AUDIO
    TITLE "5:cjc172_6803"
    INDEX 01 00:28:52
  TRACK 26 AUDIO
    TITLE "0:"
    INDEX 01 00:32:36
  TRACK 27 AUDIO
    TITLE "3:cjc172_6804"
    INDEX 01 00:33:06
  TRACK 28 AUDIO
    TITLE "0:"
    INDEX 01 00:34:21
  TRACK 29 AUDIO
    TITLE "4:cjc172_6805"
    INDEX 01 00:34:31
  TRACK 30 AUDIO
    TITLE "0:"
    INDEX 01 00:35:50
  TRACK 31 AUDIO
    TITLE "5:cjc172_6806"
    INDEX 01 00:35:60
  TRACK 32 AUDIO
    TITLE "0:"
    INDEX 01 00:39:40
  TRACK 33 AUDIO
    TITLE "3:cjc172_6807"
    INDEX 01 00:40:14
  TRACK 34 AUDIO
    TITLE "0:"
    INDEX 01 00:41:15
  TRACK 35 AUDIO
    TITLE "4:cjc172_6808"
    INDEX 01 00:41:27
  TRACK 36 AUDIO
    TITLE "0:"
    INDEX 01 00:43:26
  TRACK 37 AUDIO
    TITLE "5:cjc172_6809"
    INDEX 01 00:43:36
  TRACK 38 AUDIO
    TITLE "0:"
    INDEX 01 00:48:25
  TRACK 39 AUDIO
    TITLE "3:cjc172_6810"
    INDEX 01 00:48:74
  TRACK 40 AUDIO
    TITLE "0:"
    INDEX 01 00:50:10
  TRACK 41 AUDIO
    TITLE "4:cjc172_6811"
    INDEX 01 00:50:18
  TRACK 42 AUDIO
    TITLE "0:"
    INDEX 01 00:51:25
  TRACK 43 AUDIO
    TITLE "5:cjc172_6812"
    INDEX 01 00:51:35
  TRACK 44 AUDIO
    TITLE "0:"
    INDEX 01 00:56:72
  TRACK 45 AUDIO
    TITLE "3:cjc172_6813"
    INDEX 01 00:57:46
  TRACK 46 AUDIO
    TITLE "0:"
    INDEX 01 00:58:67
  TRACK 47 AUDIO
    TITLE "4:cjc172_6814"
    INDEX 01 00:58:74
  TRACK 48 AUDIO
    TITLE "0:"
    INDEX 01 01:01:47
  TRACK 49 AUDIO
    TITLE "5:cjc172_6815"
    INDEX 01 01:01:55
  TRACK 50 AUDIO
    TITLE "0:"
    INDEX 01 01:06:09
  TRACK 51 AUDIO
    TITLE "3:cjc172_6816"
    INDEX 01 01:06:56
  TRACK 52 AUDIO
    TITLE "0:"
    INDEX 01 01:07:71
  TRACK 53 AUDIO
    TITLE "4:cjc172_6817"
    INDEX 01 01:08:06
  TRACK 54 AUDIO
    TITLE "0:"
    INDEX 01 01:09:43
  TRACK 55 AUDIO
    TITLE "5:cjc172_6818"
    INDEX 01 01:09:53
  TRACK 56 AUDIO
    TITLE "0:"
    INDEX 01 01:14:56
  TRACK 57 AUDIO
    TITLE "3:cjc172_6819"
    INDEX 01 01:15:28
  TRACK 58 AUDIO
    TITLE "0:"
    INDEX 01 01:16:39
  TRACK 59 AUDIO
    TITLE "4:cjc172_6820"
    INDEX 01 01:16:51
  TRACK 60 AUDIO
    TITLE "0:"
    INDEX 01 01:18:06
  TRACK 61 AUDIO
    TITLE "5:cjc172_6821"
    INDEX 01 01:18:12
  TRACK 62 AUDIO
    TITLE "0:"
    INDEX 01 01:22:32
